<svg  viewBox="0 0 128 128" fill="none" xmlns="http://www.w3.org/2000/svg">
<g clip-path="url(#clip0)">
<path fill="#f3722c" d="M3.61763 68.8233C3.11655 68.4137 3.13099 67.643 3.64708 67.252L23.7289 52.0369C24.3945 51.5326 25.348 52.0174 25.3324 52.8521L24.7485 84.0053C24.7328 84.84 23.7617 85.2896 23.1155 84.7614L3.61763 68.8233Z" />
<path fill="#f3722c" d="M121.788 92.9075C122.296 93.3079 122.294 94.0787 121.785 94.4791L101.964 110.059C101.307 110.575 100.345 110.108 100.347 109.273L100.403 78.1138C100.404 77.279 101.368 76.8117 102.023 77.328L121.788 92.9075Z" />
<path fill="#f3722c" d="M87.168 77.7306C97.4158 77.7306 105.78 74.4869 112.261 67.9988C118.743 61.5087 121.984 53.1307 121.984 42.8657C121.984 32.5999 118.743 24.2218 112.263 17.734C105.78 11.2445 97.4166 8 87.168 8H45.7418C45.0249 8 44.4354 8.24005 43.974 8.71764C43.5139 9.19663 43.2827 9.8078 43.2827 10.5528V60.7388H26.0664C25.3488 60.7388 24.76 60.9903 24.2986 61.4956C23.8386 62.002 23.6073 62.5992 23.6073 63.2908V75.1791C23.6073 75.925 23.8375 76.5353 24.2986 77.0152C24.76 77.4933 25.3496 77.7322 26.0664 77.7322H43.2824V87.1446H26.0664C25.3488 87.1446 24.76 87.3855 24.2986 87.8639C23.8386 88.3409 23.6073 88.9529 23.6073 89.698V99.9118C23.6073 100.656 23.8375 101.268 24.2986 101.746C24.76 102.224 25.3496 102.464 26.0664 102.464H43.2824V117.784C43.2824 118.527 43.5128 119.14 43.9737 119.618C44.4354 120.096 45.0249 120.336 45.7415 120.336H58.5771C59.2428 120.336 59.8195 120.096 60.3064 119.618C60.7929 119.139 61.0365 118.527 61.0365 117.784V102.464H99.8504C100.567 102.464 101.157 102.224 101.617 101.746C102.078 101.268 102.308 100.656 102.308 99.9118V89.6968C102.308 88.9529 102.078 88.3406 101.617 87.8608C101.157 87.3835 100.567 87.1446 99.8504 87.1446H61.0368V77.7303H87.168V77.7306ZM61.0368 24.9928H85.6295C91.0611 24.9928 95.4415 26.6419 98.7725 29.9389C102.103 33.2373 103.769 37.5451 103.769 42.8649C103.769 48.1846 102.105 52.4924 98.7744 55.7894C95.4431 59.087 91.0609 60.7372 85.6311 60.7372H61.0368V24.9928Z" />
</g>
<defs>
<clipPath id="clip0">
<rect width="128" height="128" fill="white"/>
</clipPath>
</defs>
</svg>
